<?xml version="1.0" standalone="no"?>
<!DOCTYPE svg PUBLIC "-//W3C//DTD SVG 20010904//EN"
 "http://www.w3.org/TR/2001/REC-SVG-20010904/DTD/svg10.dtd">
<svg version="1.0" xmlns="http://www.w3.org/2000/svg"
 width="128.000000pt" height="128.000000pt" viewBox="0 0 128.000000 128.000000"
 preserveAspectRatio="xMidYMid meet">
<metadata>
Created by potrace 1.11, written by Peter Selinger 2001-2013
</metadata>
<g transform="translate(0.000000,128.000000) scale(0.100000,-0.100000)"
fill="#000000" stroke="none">
<path d="M1075 1259 c-22 -12 -51 -30 -64 -40 -13 -10 -27 -16 -32 -13 -13 7
-131 17 -219 18 -132 0 -243 -14 -335 -43 -49 -16 -99 -29 -110 -28 -11 0 -53
17 -94 39 -40 21 -84 38 -97 38 -14 0 -36 -15 -58 -42 -44 -50 -44 -83 -3
-134 23 -27 28 -41 23 -62 -4 -15 -9 -63 -11 -107 -5 -82 1 -108 81 -318 18
-49 18 -54 -6 -62 -23 -7 -49 -84 -44 -130 4 -30 37 -64 64 -65 9 0 22 -11 30
-24 8 -14 39 -50 69 -81 50 -51 53 -57 42 -83 -16 -40 -10 -72 19 -91 46 -33
73 -33 107 -3 16 16 32 34 35 42 3 10 13 10 54 -4 74 -24 94 -28 149 -26 91 2
139 8 193 23 45 13 52 13 52 1 0 -22 67 -47 105 -40 27 5 34 13 44 46 9 29 9
45 1 60 -14 26 -7 48 28 85 33 35 52 84 52 132 0 29 4 35 40 49 23 9 40 23 41
33 1 9 3 29 5 45 2 19 -5 40 -23 62 l-25 34 25 92 c14 51 26 119 26 150 1 32
2 61 3 65 3 16 -15 70 -45 129 l-30 62 22 53 23 53 -23 42 c-12 24 -30 45 -38
48 -9 3 -21 8 -26 11 -6 3 -28 -5 -50 -16z"/>
</g>
</svg>
